<mxfile host="app.diagrams.net" modified="2020-10-10T01:11:27.967Z" agent="5.0 (Windows NT 10.0; Win64; x64) AppleWebKit/537.36 (KHTML, like Gecko) Chrome/85.0.4183.121 Safari/537.36" etag="51ZjkiVqJjLipnGcKzDL" version="13.7.9" type="github">
  <diagram id="C5RBs43oDa-KdzZeNtuy" name="Page-1">
    <mxGraphModel dx="1033" dy="585" grid="1" gridSize="10" guides="1" tooltips="1" connect="1" arrows="1" fold="1" page="1" pageScale="1" pageWidth="827" pageHeight="1169" math="0" shadow="0">
      <root>
        <mxCell id="WIyWlLk6GJQsqaUBKTNV-0" />
        <mxCell id="WIyWlLk6GJQsqaUBKTNV-1" parent="WIyWlLk6GJQsqaUBKTNV-0" />
        <mxCell id="PZfXItzWAirr13KffNb1-2" style="edgeStyle=orthogonalEdgeStyle;rounded=0;orthogonalLoop=1;jettySize=auto;html=1;exitX=0.5;exitY=1;exitDx=0;exitDy=0;entryX=0.5;entryY=0;entryDx=0;entryDy=0;" edge="1" parent="WIyWlLk6GJQsqaUBKTNV-1" source="PZfXItzWAirr13KffNb1-0">
          <mxGeometry relative="1" as="geometry">
            <mxPoint x="380" y="190" as="targetPoint" />
          </mxGeometry>
        </mxCell>
        <mxCell id="PZfXItzWAirr13KffNb1-0" value="开始" style="rounded=1;whiteSpace=wrap;html=1;" vertex="1" parent="WIyWlLk6GJQsqaUBKTNV-1">
          <mxGeometry x="320" y="100" width="120" height="40" as="geometry" />
        </mxCell>
        <mxCell id="PZfXItzWAirr13KffNb1-6" style="edgeStyle=orthogonalEdgeStyle;rounded=0;orthogonalLoop=1;jettySize=auto;html=1;exitX=0.5;exitY=1;exitDx=0;exitDy=0;" edge="1" parent="WIyWlLk6GJQsqaUBKTNV-1" source="PZfXItzWAirr13KffNb1-3">
          <mxGeometry relative="1" as="geometry">
            <mxPoint x="380" y="310" as="targetPoint" />
          </mxGeometry>
        </mxCell>
        <mxCell id="PZfXItzWAirr13KffNb1-3" value="输入需要判断的大奇数m" style="swimlane;" vertex="1" parent="WIyWlLk6GJQsqaUBKTNV-1">
          <mxGeometry x="280" y="190" width="200" height="80" as="geometry" />
        </mxCell>
        <mxCell id="PZfXItzWAirr13KffNb1-4" value="将需要的大整数放到文本文件" style="text;html=1;align=center;verticalAlign=middle;resizable=0;points=[];autosize=1;" vertex="1" parent="PZfXItzWAirr13KffNb1-3">
          <mxGeometry x="10" y="40" width="170" height="20" as="geometry" />
        </mxCell>
        <mxCell id="PZfXItzWAirr13KffNb1-5" value="当中" style="text;html=1;align=center;verticalAlign=middle;resizable=0;points=[];autosize=1;" vertex="1" parent="WIyWlLk6GJQsqaUBKTNV-1">
          <mxGeometry x="290" y="250" width="40" height="20" as="geometry" />
        </mxCell>
        <mxCell id="PZfXItzWAirr13KffNb1-12" style="edgeStyle=orthogonalEdgeStyle;rounded=0;orthogonalLoop=1;jettySize=auto;html=1;entryX=0.5;entryY=0;entryDx=0;entryDy=0;" edge="1" parent="WIyWlLk6GJQsqaUBKTNV-1" source="PZfXItzWAirr13KffNb1-8" target="PZfXItzWAirr13KffNb1-13">
          <mxGeometry relative="1" as="geometry">
            <mxPoint x="380" y="950" as="targetPoint" />
          </mxGeometry>
        </mxCell>
        <mxCell id="PZfXItzWAirr13KffNb1-8" value="大奇数m的判断" style="swimlane;startSize=20;" vertex="1" parent="WIyWlLk6GJQsqaUBKTNV-1">
          <mxGeometry x="120" y="310" width="520" height="690" as="geometry">
            <mxRectangle x="120" y="310" width="110" height="23" as="alternateBounds" />
          </mxGeometry>
        </mxCell>
        <mxCell id="PZfXItzWAirr13KffNb1-11" value="在2与m-2之间生成随机数a" style="whiteSpace=wrap;html=1;" vertex="1" parent="PZfXItzWAirr13KffNb1-8">
          <mxGeometry x="205" y="50" width="110" height="60" as="geometry" />
        </mxCell>
        <mxCell id="PZfXItzWAirr13KffNb1-15" value="判断a是否与m互素" style="rhombus;whiteSpace=wrap;html=1;" vertex="1" parent="PZfXItzWAirr13KffNb1-8">
          <mxGeometry x="210" y="150" width="100" height="100" as="geometry" />
        </mxCell>
        <mxCell id="PZfXItzWAirr13KffNb1-17" value="a与m是否满足Fermat定理" style="rhombus;whiteSpace=wrap;html=1;" vertex="1" parent="PZfXItzWAirr13KffNb1-8">
          <mxGeometry x="210" y="290" width="100" height="90" as="geometry" />
        </mxCell>
        <mxCell id="PZfXItzWAirr13KffNb1-20" value="次数n是否等于安全参数" style="whiteSpace=wrap;html=1;" vertex="1" parent="PZfXItzWAirr13KffNb1-8">
          <mxGeometry x="200" y="420" width="120" height="50" as="geometry" />
        </mxCell>
        <mxCell id="PZfXItzWAirr13KffNb1-22" value="m为素数" style="whiteSpace=wrap;html=1;" vertex="1" parent="PZfXItzWAirr13KffNb1-8">
          <mxGeometry x="200" y="520" width="120" height="50" as="geometry" />
        </mxCell>
        <mxCell id="PZfXItzWAirr13KffNb1-25" value="m为合数" style="whiteSpace=wrap;html=1;" vertex="1" parent="PZfXItzWAirr13KffNb1-8">
          <mxGeometry x="40" y="180" width="80" height="40" as="geometry" />
        </mxCell>
        <mxCell id="PZfXItzWAirr13KffNb1-27" value="" style="endArrow=classic;html=1;" edge="1" parent="PZfXItzWAirr13KffNb1-8">
          <mxGeometry width="50" height="50" relative="1" as="geometry">
            <mxPoint x="80" y="650" as="sourcePoint" />
            <mxPoint x="260" y="650" as="targetPoint" />
          </mxGeometry>
        </mxCell>
        <mxCell id="PZfXItzWAirr13KffNb1-29" value="m为合数" style="whiteSpace=wrap;html=1;" vertex="1" parent="PZfXItzWAirr13KffNb1-8">
          <mxGeometry x="90" y="320" width="70" height="35" as="geometry" />
        </mxCell>
        <mxCell id="PZfXItzWAirr13KffNb1-31" value="" style="endArrow=classic;html=1;" edge="1" parent="PZfXItzWAirr13KffNb1-8">
          <mxGeometry width="50" height="50" relative="1" as="geometry">
            <mxPoint x="130" y="610" as="sourcePoint" />
            <mxPoint x="260" y="610" as="targetPoint" />
          </mxGeometry>
        </mxCell>
        <mxCell id="PZfXItzWAirr13KffNb1-33" value="N" style="text;html=1;align=center;verticalAlign=middle;resizable=0;points=[];autosize=1;" vertex="1" parent="PZfXItzWAirr13KffNb1-8">
          <mxGeometry x="180" y="310" width="20" height="20" as="geometry" />
        </mxCell>
        <mxCell id="PZfXItzWAirr13KffNb1-13" value="结束" style="shape=ext;double=1;rounded=1;whiteSpace=wrap;html=1;" vertex="1" parent="WIyWlLk6GJQsqaUBKTNV-1">
          <mxGeometry x="320" y="1070" width="120" height="50" as="geometry" />
        </mxCell>
        <mxCell id="PZfXItzWAirr13KffNb1-14" style="edgeStyle=orthogonalEdgeStyle;rounded=0;orthogonalLoop=1;jettySize=auto;html=1;exitX=0.5;exitY=1;exitDx=0;exitDy=0;" edge="1" parent="WIyWlLk6GJQsqaUBKTNV-1" source="PZfXItzWAirr13KffNb1-11">
          <mxGeometry relative="1" as="geometry">
            <mxPoint x="380" y="460" as="targetPoint" />
          </mxGeometry>
        </mxCell>
        <mxCell id="PZfXItzWAirr13KffNb1-16" style="edgeStyle=orthogonalEdgeStyle;rounded=0;orthogonalLoop=1;jettySize=auto;html=1;exitX=0.5;exitY=1;exitDx=0;exitDy=0;" edge="1" parent="WIyWlLk6GJQsqaUBKTNV-1" source="PZfXItzWAirr13KffNb1-15">
          <mxGeometry relative="1" as="geometry">
            <mxPoint x="380" y="600" as="targetPoint" />
          </mxGeometry>
        </mxCell>
        <mxCell id="PZfXItzWAirr13KffNb1-19" style="edgeStyle=orthogonalEdgeStyle;rounded=0;orthogonalLoop=1;jettySize=auto;html=1;" edge="1" parent="WIyWlLk6GJQsqaUBKTNV-1" source="PZfXItzWAirr13KffNb1-17">
          <mxGeometry relative="1" as="geometry">
            <mxPoint x="380" y="730" as="targetPoint" />
          </mxGeometry>
        </mxCell>
        <mxCell id="PZfXItzWAirr13KffNb1-21" style="edgeStyle=orthogonalEdgeStyle;rounded=0;orthogonalLoop=1;jettySize=auto;html=1;" edge="1" parent="WIyWlLk6GJQsqaUBKTNV-1" source="PZfXItzWAirr13KffNb1-20">
          <mxGeometry relative="1" as="geometry">
            <mxPoint x="380" y="830" as="targetPoint" />
          </mxGeometry>
        </mxCell>
        <mxCell id="PZfXItzWAirr13KffNb1-23" style="edgeStyle=orthogonalEdgeStyle;rounded=0;orthogonalLoop=1;jettySize=auto;html=1;exitX=0.5;exitY=1;exitDx=0;exitDy=0;" edge="1" parent="WIyWlLk6GJQsqaUBKTNV-1" source="PZfXItzWAirr13KffNb1-22">
          <mxGeometry relative="1" as="geometry">
            <mxPoint x="380" y="1000" as="targetPoint" />
          </mxGeometry>
        </mxCell>
        <mxCell id="PZfXItzWAirr13KffNb1-24" style="edgeStyle=orthogonalEdgeStyle;rounded=0;orthogonalLoop=1;jettySize=auto;html=1;exitX=0;exitY=0.5;exitDx=0;exitDy=0;" edge="1" parent="WIyWlLk6GJQsqaUBKTNV-1" source="PZfXItzWAirr13KffNb1-15">
          <mxGeometry relative="1" as="geometry">
            <mxPoint x="240" y="510" as="targetPoint" />
          </mxGeometry>
        </mxCell>
        <mxCell id="PZfXItzWAirr13KffNb1-26" style="edgeStyle=orthogonalEdgeStyle;rounded=0;orthogonalLoop=1;jettySize=auto;html=1;" edge="1" parent="WIyWlLk6GJQsqaUBKTNV-1" source="PZfXItzWAirr13KffNb1-25">
          <mxGeometry relative="1" as="geometry">
            <mxPoint x="200" y="960" as="targetPoint" />
          </mxGeometry>
        </mxCell>
        <mxCell id="PZfXItzWAirr13KffNb1-28" style="edgeStyle=orthogonalEdgeStyle;rounded=0;orthogonalLoop=1;jettySize=auto;html=1;exitX=0;exitY=0.5;exitDx=0;exitDy=0;" edge="1" parent="WIyWlLk6GJQsqaUBKTNV-1" source="PZfXItzWAirr13KffNb1-17">
          <mxGeometry relative="1" as="geometry">
            <mxPoint x="280" y="645" as="targetPoint" />
          </mxGeometry>
        </mxCell>
        <mxCell id="PZfXItzWAirr13KffNb1-30" style="edgeStyle=orthogonalEdgeStyle;rounded=0;orthogonalLoop=1;jettySize=auto;html=1;exitX=0.5;exitY=1;exitDx=0;exitDy=0;" edge="1" parent="WIyWlLk6GJQsqaUBKTNV-1" source="PZfXItzWAirr13KffNb1-29">
          <mxGeometry relative="1" as="geometry">
            <mxPoint x="245" y="920" as="targetPoint" />
          </mxGeometry>
        </mxCell>
        <mxCell id="PZfXItzWAirr13KffNb1-32" value="N" style="text;html=1;align=center;verticalAlign=middle;resizable=0;points=[];autosize=1;" vertex="1" parent="WIyWlLk6GJQsqaUBKTNV-1">
          <mxGeometry x="270" y="490" width="20" height="20" as="geometry" />
        </mxCell>
        <mxCell id="PZfXItzWAirr13KffNb1-34" value="Y" style="text;html=1;align=center;verticalAlign=middle;resizable=0;points=[];autosize=1;" vertex="1" parent="WIyWlLk6GJQsqaUBKTNV-1">
          <mxGeometry x="380" y="570" width="20" height="20" as="geometry" />
        </mxCell>
        <mxCell id="PZfXItzWAirr13KffNb1-35" value="Y" style="text;html=1;align=center;verticalAlign=middle;resizable=0;points=[];autosize=1;" vertex="1" parent="WIyWlLk6GJQsqaUBKTNV-1">
          <mxGeometry x="380" y="700" width="20" height="20" as="geometry" />
        </mxCell>
      </root>
    </mxGraphModel>
  </diagram>
</mxfile>
